<svg xmlns="http://www.w3.org/2000/svg" width="247.764" height="87.105" viewBox="0 0 247.764 87.105"><path d="M210.55,221.56c6.874-10.768,3.427-12.424,3.076-12.224-6.688,3.768-11.781,15.11-11.353,18.887.59,5.2,4.626-.948,8.277-6.663m26.043-9.882a19.778,19.778,0,0,0-2.368,7.193c-.176,1.263-.381,6.75-.336,7.5a26.135,26.135,0,0,0,.462,3.606c.163.594,1.183,2.729-2.088,3.181-1.925.265-1.887-4.551-1.925-5.339a82.591,82.591,0,0,1,.383-8.457c.188-.9-.187.053-.541.64-.816,1.365-1.765,3.211-2.9,5.029-1.493,2.391-4.822,8.085-9.363,7.746-1.7-.128-3.426-.347-4.413-5.081a26.212,26.212,0,0,1-.193-5.632c-.047-.3-.007-.633-.254-.5-1.608,3.752-6.831,14.809-12.732,12.324-2.733-1.148-4.08-4.676-1.063-11.566,2.939-6.715,10.354-15.043,13.307-15.6,2.632-.5,2.906.826,2.906.826.24-.489,1.881-.432,2.24.27.479.939.8,1.1.479,3.578-.181,1.428-1.508,10.362-1.279,13.431.105,1.439.352,4.983,1.814,5.154,2.554.306,5.649-5.127,6-5.695.688-1.11,6.2-10.348,6.877-11.7.73-1.454,1.191-2.516,1.662-3.442s1.891-1.029,3.128-.184.618,2,.194,2.721ZM119.986,216.2c-3.24.349-9.147,8.181-10.365,10.963-1.244,2.84-1.694,5.578-.217,6.72,3.056,2.373,6.217-1.649,7.146-2.585.575-.575,4.6-4.961,5.607-9.415C122.825,218.945,123.135,215.866,119.986,216.2Zm1.689,34.763q-.335.6-.689,1.188a31.049,31.049,0,0,1-9.4,10.048,26.673,26.673,0,0,1-15.717,4.71,16.686,16.686,0,0,1-8.942-2.235,3.933,3.933,0,0,1-1.816-4.947c.911-1.978,3.753-1.786,4.963-.65,3.02,2.832,4.822,3.93,8.7,3.742a20.916,20.916,0,0,0,9.107-2.678c16.06-9.379,15.914-26.239,16.566-36.4.069-.618-.267-.169-.38.168a40.043,40.043,0,0,1-2.868,6.249,21.463,21.463,0,0,1-6.8,7.414c-2.034,1.343-5.337,1.994-7.663.477-.843-.553-5.774-3.44-1.595-12.039,2.628-5.41,8.158-9.163,9.406-9.959,3.05-1.948,5.23-2.875,7.516-2.7,1.164.085,1.332.543,2.2.52a2.887,2.887,0,0,1,1.575-1.227c1.088-.174,2.38.738,2.877,2.465s-.8,4.5-1.124,5.837C127.6,220.951,128.745,238.26,121.674,250.966Zm18.3-39c-1.969.037-1.807,1.458-2.22,2.7s-3.792,12.384-4.223,14.382a13.473,13.473,0,0,0-.1,6.535c.634,2.8,3.847,1.984,4.188,1.492,1.57-2.2.179-2.846.129-4.382a34.332,34.332,0,0,1,.731-5.461c.118-.775.355-4.3.471-4.775a27.2,27.2,0,0,1,2.836-6.824c.683-1.022,1.285-3.722-1.808-3.668Zm5.358-13.034a2.45,2.45,0,0,0-3.645-.943c-2.843,2.013.435,4.8.962,6.16s3.368,2.508,2.953-.184C145.539,203.578,146.112,200.535,145.33,198.933Zm31.392,13.127c-.925.206-2.772.579-3.934.775-1.759.3-2.718,1.4-2.652,2.52s.452,1.657,2.022,1.359c1.419-.269,2.631-1.475,3.873-1.481,0,0-2.565,10.814-2.733,12.264s-.927,5.414.632,7.664c3.467,5.007,10.4-.732,11.05-1.357.476-.462,4.857-4.3,6.342-7.385.752-1.564-.529-1.909-1.4-2.228s-2.7.232-2.955,1.376c-.558,2.484-6.625,9.184-9.627,7.841-3.539-1.586,2.845-19.357,2.845-19.357.761-.342,4.617-1.335,8.267-2.274,4.211-1.079,17.082-3.62,14.177-7.466-1.422-1.881-5.1.983-6.341,1.583-4.461,2.139-15.381,5.28-15.381,5.28s1.418-6.388,1.877-7.647c.527-1.44,2.471-2.383,2.754-4.947.334-2.983-3.259-4.341-4.974-1.075-.355.67-.844,2.52-.892,2.566-.461.443-4.426,2.026-8.325,3.885-1.229.586-8.209,3.124-8.222,3.107.01-.053,2.119-6.743,4.564-12.324,1.627-3.711,3.918-8.877,7.978-9.925,3.8-.98,2.009,2.98,3.72,4.01,2.17,1.3,3.5-.341,3.833-1.915.26-1.233.191-7.7-6.385-7.055-6.258.617-11.244,10.17-17.41,28.019-.066.072-4.964,3.235-9.024,4.048-2.008.4-2.9.575-3.161,1.291a3.161,3.161,0,0,0,.738,3.382c1.157,1.381,10.2-4.6,10.188-4.562-.184.244-7.6,28.505-7.661,28.835-.428,2.354-2.819,8.56-2.689,11.376.072,1.449.64,4.466,2.726,4.331,4.369.287,3.527-5.852,3.233-6.978-.612-2.329,2.527-17.721,5.344-29.065.574-2.314,1.754-6.11,1.96-7.013a4.225,4.225,0,0,1,2.294-3.037s15.707-7.4,15.853-7.361C179.231,203.137,176.722,212.06,176.722,212.06Zm107.611,14.127c3.041,2.876,6.066,1.053,7.623-.2,4.775-3.84,14.619-21.339,14.619-21.339.056.586-4.1,20.656,1.457,22.881,3.565,1.424,11.861-5.654,12.811-6.31,5.478-3.781,2.121-5.164,1.064-5.164-2.825-.009-2.316,2.036-3.089,2.955-1.274,1.517-6.4,6.787-8.9,5.388-1.35-.757-1.017-5.216-.883-6.243.789-10.623,1-12.541,1.619-14.984.347-1.358,2-1.322,3.015-1.508,13.677-2.527,16.131-1.508,17.836-2.339,1.354-.666,1.6-3.532-.324-4.148-.879-.276-1.992.392-4,1.143s-12.095,2.972-13.579,3.192c-1.367.2-1.66.005-1.992-.423s.3-5.408,2.263-9.54c.853-1.788.876-4.525-1.91-4.736a2.349,2.349,0,0,0-2.554,1.22c-.433.97-1.268,9.822-1.463,10.412s-1.254,1.036-1.488,2.047-.071,1.641-.751,1.868-2.569.414-3.343.6c-.815.2-1.3,1.757-1.328,2.658s1.424.366,2.125.263c.8-.117,2.758-1.094,1.365.582-.528.641-10.022,15.482-13.729,18.538-4.266,3.512-3.961-3.393-3.855-4.57A34.166,34.166,0,0,1,291.1,205.54c.435-1.127.619-4.466-3.018-3.728a2.574,2.574,0,0,0-1.821,1.71.369.369,0,0,0-.011.074c-.365,3.291-6.681,18.085-1.918,22.592Zm5.543-34.456c1.121,2.185,3.035,1.412,3.361.848s.588-.676,1.517-1.05c1.7-.681-1.239-3.74-4.038-2.877a1.07,1.07,0,0,0-.641.91c.076.64-.581,1.438-.2,2.17ZM255.542,208.9s1.837-1.583,2.615-1.542c.361.018-.269,1.018.994,1.635.671.332-.733,4.8-3.509,9.084-6.373,9.842-9.395,9.4-9.657,6.408C245.446,218.252,253.694,210.172,255.542,208.9Zm3.236,8.069s-.024,2.121.142,3.933a25.012,25.012,0,0,0,1.277,6.134c.888,1.7,2.772,1.7,4.222.865,1.9-1.091,1-3.131.278-3.81a5.944,5.944,0,0,1-2.629-3.926,55.747,55.747,0,0,1,.4-10.74,31.953,31.953,0,0,1,2.073-6.381c.756-1.492,5.311-10.035,5.378-12.9.028-1.251-1.261-2.289-3.368-2.072a2.835,2.835,0,0,0-2.634,3.009c-.005,1.1-2.236,8.842-2.351,9.195-.184.529-.55,3.7-1.638,3.706a10.575,10.575,0,0,0-6.7,2.242,34.731,34.731,0,0,0-6.671,6.461c-.934,1.309-5.178,6.765-4.7,13.279.437,5.922,4.581,4.874,5.77,4.684,5.408-.869,9.21-9.763,9.76-10.854.974-1.936.645-1.415,1.388-2.822Zm-21.3-21.637a2.547,2.547,0,0,0,.565,2.831c.65.6.74.713.761,1.2.037.9.61.948,1.493.935,1.08-.016,1.962-.765,2.071-2.289a3.375,3.375,0,0,0-2.557-3.122C238.62,194.6,237.988,194.7,237.474,195.334Z" transform="translate(-84.803 -179.809)"/></svg>